<?xml version="1.0" standalone="no"?>
<!DOCTYPE svg PUBLIC "-//W3C//DTD SVG 20010904//EN"
 "http://www.w3.org/TR/2001/REC-SVG-20010904/DTD/svg10.dtd">
<svg version="1.0" xmlns="http://www.w3.org/2000/svg"
 width="69.000000pt" height="91.000000pt" viewBox="0 0 69.000000 91.000000"
 preserveAspectRatio="xMidYMid meet">

<g transform="translate(0.000000,91.000000) scale(0.100000,-0.100000)"
fill="#000000" stroke="none">
<path d="M61 600 c-65 -15 -68 -26 -41 -142 16 -65 32 -110 45 -123 l20 -20 5
58 c5 53 14 69 43 79 4 2 3 27 -4 56 -6 29 -8 64 -5 78 7 27 -1 28 -63 14z"/>
<path d="M556 587 c3 -14 1 -49 -5 -78 -10 -45 -9 -53 5 -64 11 -8 19 -31 22
-69 2 -31 8 -56 11 -56 22 0 51 55 70 132 11 48 21 94 21 102 0 21 -37 43 -88
51 -42 7 -43 6 -36 -18z"/>
</g>
</svg>
