<?xml version="1.0" standalone="no"?><!DOCTYPE svg PUBLIC "-//W3C//DTD SVG 1.1//EN" "http://www.w3.org/Graphics/SVG/1.1/DTD/svg11.dtd"><svg t="1567512682150" class="icon" viewBox="0 0 1024 1024" version="1.1" xmlns="http://www.w3.org/2000/svg" p-id="5574" xmlns:xlink="http://www.w3.org/1999/xlink" width="40" height="50"><defs><style type="text/css"></style></defs><path d="M170.002 251.225h216.282v66.944H170.002zM647.115 670.824h216.282v55.68H647.115zM647.115 770.275h216.282v55.68H647.115zM651.928 253.429h76.801v-85.95h48.467v85.95h81.389v47.34h-81.389v82.954h-47.34v-82.954h-77.928zM191.023 804.477l54.306-54.306-60.776-60.776 34.272-34.271 60.775 60.775 57.551-57.55 33.475 33.474-57.551 57.551 58.658 58.658-33.475 33.474-58.658-58.658-55.103 55.104z" fill="#D82008" p-id="5575"></path><path d="M531.596 275.003c0 145.036-117.575 262.61-262.61 262.61S6.375 420.039 6.375 275.003s117.575-262.61 262.61-262.61 262.611 117.574 262.611 262.61zM275.006 96.097c-99.667 0-180.463 80.796-180.463 180.463s80.796 180.463 180.463 180.463 180.463-80.796 180.463-180.463S374.673 96.097 275.006 96.097z" fill="#D82008" p-id="5576"></path><path d="M1016.987 272.601c0 145.036-117.575 262.61-262.61 262.61s-262.61-117.575-262.61-262.61S609.341 9.991 754.377 9.991s262.61 117.575 262.61 262.61zM757.035 89.65c-99.667 0-180.463 80.796-180.463 180.463s80.796 180.463 180.463 180.463 180.463-80.796 180.463-180.463S856.702 89.65 757.035 89.65zM531.596 747.791c0 145.036-117.575 262.61-262.61 262.61S6.375 892.827 6.375 747.791s117.575-262.61 262.61-262.61 262.611 117.575 262.611 262.61z m-256.59-174.93c-99.667 0-180.463 80.796-180.463 180.463s80.796 180.463 180.463 180.463 180.463-80.796 180.463-180.463-80.796-180.463-180.463-180.463z" fill="#D82008" p-id="5577"></path><path d="M1018.025 748.39c0 145.036-117.575 262.61-262.61 262.61s-262.61-117.575-262.61-262.61 117.575-262.61 262.61-262.61 262.61 117.574 262.61 262.61zM758.073 572.089c-99.667 0-180.463 80.796-180.463 180.463s80.796 180.463 180.463 180.463 180.463-80.796 180.463-180.463-80.797-180.463-180.463-180.463z" fill="#D82008" p-id="5578"></path></svg>